# Blender v2.93.0 OBJ File: 'table.blend'
# www.blender.org
mtllib Wooden table.mtl
o Table_Wooden
v -3.463962 5.837684 -2.269637
v -3.463962 6.033199 -2.269637
v 3.437250 5.837684 -2.269636
v 3.437250 6.033199 -2.269636
v -3.426584 5.837684 -2.198287
v -3.426584 6.033199 -2.198287
v 3.437250 5.837684 -2.198286
v 3.437250 6.033199 -2.198286
v -3.218334 5.837684 -1.372242
v -3.218334 6.033199 -1.372242
v 3.244335 5.837684 -1.372242
v 3.244335 6.033199 -1.372242
v -3.212995 5.837684 -1.301678
v -3.212995 6.033199 -1.301678
v 3.214655 5.837684 -1.301677
v 3.214655 6.033199 -1.301677
v -3.116879 5.837684 -0.475633
v -3.116879 6.033199 -0.475633
v 3.125618 5.837684 -0.475633
v 3.125618 6.033199 -0.475633
v -3.106200 5.837684 -0.412352
v -3.106200 6.033199 -0.412352
v 3.110778 5.837684 -0.412352
v 3.110778 6.033199 -0.412352
v -3.106200 5.837684 0.413693
v -3.106200 6.033199 0.413693
v 3.115725 5.837684 0.413693
v 3.115725 6.033199 0.413693
v -3.106200 5.837684 0.484257
v -3.106200 6.033199 0.484257
v 3.120671 5.837684 0.484258
v 3.120671 6.033199 0.484258
v -3.170277 5.837684 1.310302
v -3.170277 6.033199 1.310302
v 3.194869 5.837684 1.310302
v 3.194869 6.033199 1.310302
v -3.207655 5.837684 1.388936
v -3.207655 6.033199 1.388936
v 3.219602 5.837684 1.388936
v 3.219602 6.033199 1.388936
v -3.357167 5.837684 2.214980
v -3.357167 6.033199 2.214980
v 3.382838 5.837684 2.214980
v 3.382838 6.033199 2.214980
v -3.383866 5.837684 2.270192
v -3.383866 6.033199 2.270192
v 3.437250 5.837684 2.270192
v 3.437250 6.033199 2.270192
v -3.563239 5.837684 -2.513416
v -3.171665 5.837684 -3.095681
v -3.597572 5.837684 -2.804549
v -3.454246 5.837684 -3.017673
v -3.171665 6.033199 -3.095681
v -3.563239 6.033199 -2.513416
v -3.454246 6.033199 -3.017673
v -3.597572 6.033199 -2.804549
v 3.096372 5.837684 -3.095681
v 3.518209 5.837684 -2.501989
v 3.383007 5.837684 -3.016141
v 3.537410 5.837684 -2.798835
v 3.518209 6.033199 -2.501989
v 3.096372 6.033199 -3.095681
v 3.537410 6.033199 -2.798835
v 3.383007 6.033199 -3.016141
v -3.048852 5.837684 3.096236
v -3.466943 5.837684 2.503863
v -3.334985 5.837684 3.016874
v -3.488017 5.837684 2.800050
v -3.466943 6.033199 2.503863
v -3.048852 6.033199 3.096236
v -3.488017 6.033199 2.800050
v -3.334985 6.033199 3.016874
v 3.529263 5.837684 2.509440
v 3.126245 5.837684 3.096237
v 3.557874 5.837684 2.802839
v 3.410359 5.837684 3.017621
v 3.126245 6.033199 3.096237
v 3.529263 6.033199 2.509440
v 3.410359 6.033199 3.017621
v 3.557874 6.033199 2.802839
v -2.282787 5.220288 -2.747591
v -2.729866 5.220288 -2.300512
v -2.729866 5.859922 -2.300512
v -2.282787 5.859922 -2.747591
v 2.730686 5.220288 -2.300512
v 2.283607 5.220288 -2.747591
v 2.283607 5.859922 -2.747591
v 2.730686 5.859922 -2.300512
v -2.729866 5.220288 2.265882
v -2.282787 5.220288 2.712961
v -2.282787 5.859922 2.712961
v -2.729866 5.859922 2.265882
v 2.283607 5.220288 2.712961
v 2.730686 5.220288 2.265882
v 2.730686 5.859922 2.265882
v 2.283607 5.859922 2.712961
v -2.529866 5.220288 2.183039
v -2.529866 5.220288 -2.217669
v -2.529866 5.859922 -2.217669
v -2.529866 5.859922 2.183039
v 2.530686 5.220288 -2.217669
v 2.530686 5.220288 2.183039
v 2.530686 5.859922 2.183039
v 2.530686 5.859922 -2.217669
v -2.199944 5.220288 -2.547591
v 2.200764 5.220288 -2.547591
v 2.200764 5.859922 -2.547591
v -2.199944 5.859922 -2.547591
v 2.200764 5.220288 2.512961
v -2.199944 5.220288 2.512961
v -2.199944 5.859922 2.512961
v 2.200764 5.859922 2.512961
v 2.615236 1.065480 1.931218
v 2.615236 1.667183 1.483498
v 2.615236 1.191784 2.100961
v 2.615236 1.793487 1.653242
v -2.814862 1.065480 1.931219
v -2.814862 1.667183 1.483500
v -2.814862 1.191784 2.100963
v -2.814862 1.793487 1.653243
v 2.322417 -0.029381 2.725981
v 2.322416 5.859201 -1.513842
v 2.131819 -0.029381 2.725981
v 2.131819 5.859201 -1.513842
v 2.322417 -0.029381 2.193959
v 2.322416 5.859200 -2.045863
v 2.131819 -0.029381 2.193959
v 2.131819 5.859200 -2.045863
v 2.332267 -0.029381 -2.712108
v 2.332267 5.859201 1.527714
v 2.522865 -0.029381 -2.712109
v 2.522864 5.859201 1.527714
v 2.332267 -0.029381 -2.180087
v 2.332266 5.859201 2.059735
v 2.522865 -0.029381 -2.180088
v 2.522864 5.859201 2.059735
v -2.351659 -0.029381 2.725981
v -2.351660 5.859201 -1.513842
v -2.542256 -0.029381 2.725981
v -2.542258 5.859201 -1.513842
v -2.351659 -0.029381 2.193959
v -2.351660 5.859201 -2.045864
v -2.542256 -0.029381 2.193959
v -2.542258 5.859201 -2.045864
v -2.341809 -0.029381 -2.712108
v -2.341810 5.859201 1.527714
v -2.151211 -0.029381 -2.712108
v -2.151212 5.859201 1.527714
v -2.341809 -0.029381 -2.180087
v -2.341810 5.859201 2.059736
v -2.151211 -0.029381 -2.180087
v -2.151212 5.859201 2.059736
v -2.627522 1.066291 -1.918437
v -2.627522 1.667994 -1.470717
v -2.627522 1.188625 -2.082846
v -2.627522 1.790329 -1.635126
v 2.802575 1.066291 -1.918437
v 2.802576 1.667994 -1.470717
v 2.802575 1.188625 -2.082845
v 2.802576 1.790329 -1.635126
vt 0.844940 0.475982
vt 0.844940 0.522970
vt 0.831684 0.522971
vt 0.831684 0.475982
vt 0.647404 0.756970
vt 0.600415 0.756970
vt 0.600415 0.416766
vt 0.647404 0.416766
vt 0.817166 0.522970
vt 0.817165 0.475982
vt 0.830421 0.475982
vt 0.830421 0.522970
vt 0.380158 0.776429
vt 0.333170 0.776429
vt 0.333170 0.436225
vt 0.380158 0.436225
vt 0.817165 0.863172
vt 0.830422 0.863172
vt 0.831684 0.863175
vt 0.844940 0.863175
vt 0.207496 0.931740
vt 0.207496 0.477134
vt 0.219437 0.477134
vt 0.219438 0.931740
vt 0.845479 0.474719
vt 0.845479 0.020108
vt 0.872529 0.000631
vt 0.872529 0.455243
vt 0.493120 0.448913
vt 0.493120 0.903519
vt 0.481179 0.903519
vt 0.481179 0.448913
vt 0.844216 0.020107
vt 0.844216 0.474719
vt 0.817165 0.455243
vt 0.817167 0.000631
vt 0.219438 0.965073
vt 0.207496 0.965073
vt 0.219438 0.443802
vt 0.207496 0.443802
vt 0.517823 0.476664
vt 0.517823 0.931259
vt 0.505883 0.931259
vt 0.505881 0.476664
vt 0.221165 0.917937
vt 0.221165 0.463329
vt 0.248215 0.443853
vt 0.248215 0.898461
vt 0.440104 0.448913
vt 0.440105 0.903529
vt 0.428163 0.903529
vt 0.428163 0.448913
vt 0.900842 0.020108
vt 0.900842 0.474712
vt 0.873792 0.455236
vt 0.873791 0.000631
vt 0.505881 0.443330
vt 0.517823 0.443330
vt 0.505883 0.964590
vt 0.517824 0.964590
vt 0.388352 0.936850
vt 0.388352 0.482245
vt 0.400293 0.482245
vt 0.400293 0.936850
vt 0.193029 0.443802
vt 0.193029 0.898411
vt 0.165979 0.917887
vt 0.165979 0.463278
vt 0.413498 0.448913
vt 0.413497 0.903509
vt 0.401556 0.903509
vt 0.401556 0.448913
vt 0.547400 0.897940
vt 0.547399 0.443330
vt 0.574449 0.462806
vt 0.574449 0.917416
vt 0.400293 0.970183
vt 0.388352 0.970183
vt 0.400293 0.448913
vt 0.388352 0.448913
vt 0.206234 0.477136
vt 0.206233 0.931731
vt 0.194292 0.931731
vt 0.194291 0.477136
vt 0.276528 0.443853
vt 0.276528 0.898461
vt 0.249478 0.917937
vt 0.249478 0.463329
vt 0.414761 0.903529
vt 0.414761 0.448913
vt 0.426702 0.448913
vt 0.426701 0.903529
vt 0.519086 0.897938
vt 0.519086 0.443330
vt 0.546136 0.462806
vt 0.546136 0.917414
vt 0.194291 0.443802
vt 0.206234 0.443802
vt 0.194292 0.965062
vt 0.206233 0.965062
vt 0.872554 0.816186
vt 0.872554 0.863174
vt 0.859715 0.863174
vt 0.859715 0.816186
vt 0.701813 0.756982
vt 0.654824 0.756982
vt 0.654824 0.416778
vt 0.701813 0.416778
vt 0.886656 0.475982
vt 0.886656 0.522971
vt 0.873817 0.522971
vt 0.873817 0.475982
vt 0.284918 0.436190
vt 0.331907 0.436190
vt 0.331907 0.776394
vt 0.284918 0.776394
vt 0.859715 0.475982
vt 0.872554 0.475982
vt 0.886656 0.863174
vt 0.873817 0.863174
vt 0.902105 0.433001
vt 0.914354 0.433001
vt 0.914354 0.449492
vt 0.902105 0.449492
vt 0.599152 0.434510
vt 0.584163 0.440275
vt 0.565781 0.442067
vt 0.552324 0.432825
vt 0.547399 0.415025
vt 0.547399 0.028146
vt 0.552371 0.010219
vt 0.565956 0.000631
vt 0.584512 0.001952
vt 0.599152 0.007157
vt 0.902105 0.000631
vt 0.914355 0.000631
vt 0.441368 0.006906
vt 0.455925 0.001834
vt 0.474523 0.000631
vt 0.488137 0.010305
vt 0.493120 0.028263
vt 0.493120 0.420967
vt 0.488233 0.438671
vt 0.474881 0.447650
vt 0.456641 0.445499
vt 0.441368 0.439279
vt 0.902105 0.502316
vt 0.914354 0.502316
vt 0.914355 0.895018
vt 0.902105 0.895018
vt 0.902105 0.948993
vt 0.914355 0.948993
vt 0.914355 0.964409
vt 0.902105 0.964409
vt 0.479916 0.878937
vt 0.467667 0.878937
vt 0.467667 0.448913
vt 0.479916 0.448913
vt 0.273742 0.000631
vt 0.276527 0.012560
vt 0.224774 0.024646
vt 0.221989 0.012718
vt 0.858452 0.880874
vt 0.846203 0.880874
vt 0.846203 0.475982
vt 0.858452 0.475982
vt 0.168973 0.025556
vt 0.165979 0.013678
vt 0.217732 0.000631
vt 0.220726 0.012509
vt 0.220726 0.442539
vt 0.168973 0.430453
vt 0.276527 0.442590
vt 0.224775 0.429543
vt 0.900169 0.878679
vt 0.887919 0.878679
vt 0.887919 0.475982
vt 0.900169 0.475982
vt 0.656097 0.415515
vt 0.654824 0.403332
vt 0.706595 0.397922
vt 0.707868 0.410105
vt 0.970980 0.537454
vt 0.983229 0.537454
vt 0.983229 0.928555
vt 0.970980 0.928555
vt 0.652188 0.397492
vt 0.653561 0.409664
vt 0.601788 0.415504
vt 0.600415 0.403332
vt 0.601828 0.000631
vt 0.653561 0.006391
vt 0.656135 0.000631
vt 0.707868 0.006822
vt 0.987119 0.000631
vt 0.999369 0.000631
vt 0.999369 0.390137
vt 0.987119 0.390137
vt 0.760955 0.413183
vt 0.760884 0.425433
vt 0.709131 0.425132
vt 0.709202 0.412883
vt 0.996741 0.927263
vt 0.984492 0.927263
vt 0.984492 0.537454
vt 0.996742 0.537454
vt 0.814975 0.802708
vt 0.814975 0.814958
vt 0.763222 0.814958
vt 0.763222 0.802708
vt 0.763222 0.413205
vt 0.814975 0.412895
vt 0.760955 0.814936
vt 0.709202 0.814945
vt 0.985856 0.390749
vt 0.973607 0.390749
vt 0.973606 0.000631
vt 0.985856 0.000631
vt 0.761959 0.005139
vt 0.760897 0.017342
vt 0.709131 0.012835
vt 0.710194 0.000631
vt 0.969717 0.936241
vt 0.957468 0.936241
vt 0.957468 0.537454
vt 0.969717 0.537454
vt 0.763222 0.012846
vt 0.764141 0.000631
vt 0.815903 0.004524
vt 0.814984 0.016739
vt 0.815903 0.406862
vt 0.764161 0.411632
vt 0.761959 0.407465
vt 0.710218 0.411620
vt 0.943955 0.537454
vt 0.956205 0.537454
vt 0.956205 0.940139
vt 0.943956 0.940139
vt 0.331907 0.010562
vt 0.329601 0.022592
vt 0.277790 0.012662
vt 0.280096 0.000631
vt 0.466404 0.871180
vt 0.454155 0.871180
vt 0.454154 0.448913
vt 0.466404 0.448913
vt 0.333170 0.012696
vt 0.335288 0.000631
vt 0.387089 0.009726
vt 0.384971 0.021791
vt 0.387089 0.424463
vt 0.335391 0.434963
vt 0.331907 0.425264
vt 0.280208 0.434927
vt 0.915617 0.526190
vt 0.927867 0.526190
vt 0.927867 0.953551
vt 0.915618 0.953551
vt 0.915617 0.510652
vt 0.927867 0.510652
vt 0.494383 0.027674
vt 0.499308 0.009873
vt 0.512765 0.000631
vt 0.531147 0.002424
vt 0.546136 0.008189
vt 0.546136 0.435542
vt 0.531496 0.440747
vt 0.512940 0.442067
vt 0.499355 0.432479
vt 0.494383 0.414553
vt 0.915618 0.069951
vt 0.927867 0.069951
vt 0.927867 0.456817
vt 0.915617 0.456817
vt 0.915618 0.000631
vt 0.927867 0.000631
vt 0.927867 0.016690
vt 0.915618 0.016690
vt 0.914354 0.467858
vt 0.902105 0.467858
vt 0.914354 0.483949
vt 0.902105 0.483949
vt 0.902105 0.930357
vt 0.914355 0.930357
vt 0.902105 0.913655
vt 0.914355 0.913655
vt 0.915618 0.051483
vt 0.927867 0.051483
vt 0.915618 0.035159
vt 0.927867 0.035159
vt 0.915617 0.492048
vt 0.927867 0.492048
vt 0.915617 0.475421
vt 0.927867 0.475421
vt 0.388352 0.028263
vt 0.393335 0.010305
vt 0.406950 0.000631
vt 0.425548 0.001834
vt 0.440105 0.006906
vt 0.440105 0.439279
vt 0.424832 0.445499
vt 0.406592 0.447650
vt 0.393239 0.438671
vt 0.388352 0.420967
vt 0.040706 0.612428
vt 0.000631 0.612428
vt 0.000631 0.326336
vt 0.040706 0.326336
vt 0.082042 0.612428
vt 0.041968 0.612428
vt 0.041968 0.326336
vt 0.082042 0.326336
vt 0.040706 0.286723
vt 0.000631 0.286723
vt 0.000631 0.000631
vt 0.040706 0.000631
vt 0.082042 0.286723
vt 0.041968 0.286723
vt 0.041968 0.000631
vt 0.082042 0.000631
vt 0.082042 0.652040
vt 0.041968 0.652040
vt 0.040706 0.652040
vt 0.000631 0.652040
vt 0.083305 0.581286
vt 0.083305 0.305575
vt 0.123379 0.305575
vt 0.123379 0.581286
vt 0.164716 0.029863
vt 0.164716 0.305575
vt 0.124642 0.305575
vt 0.124642 0.029863
vt 0.083305 0.276343
vt 0.083305 0.000631
vt 0.123379 0.000631
vt 0.123379 0.276343
vt 0.164716 0.334807
vt 0.164716 0.610518
vt 0.124642 0.610518
vt 0.124642 0.334807
vt 0.124642 0.000631
vt 0.164716 0.000631
vt 0.123379 0.610518
vt 0.083305 0.610518
vt 0.929130 0.286723
vt 0.929130 0.000631
vt 0.942693 0.000631
vt 0.942693 0.286723
vt 0.575712 0.740341
vt 0.575712 0.711109
vt 0.589275 0.711109
vt 0.589275 0.740341
vt 0.575712 0.978887
vt 0.589275 0.978887
vt 0.958781 0.268411
vt 0.958781 0.239179
vt 0.972344 0.239179
vt 0.972344 0.268411
vt 0.929130 0.607872
vt 0.929130 0.321781
vt 0.942693 0.321781
vt 0.942693 0.607872
vt 0.957518 0.506959
vt 0.957518 0.536191
vt 0.943955 0.536191
vt 0.943955 0.506959
vt 0.575712 0.472562
vt 0.589275 0.472562
vt 0.575712 0.443330
vt 0.589275 0.443330
vt 0.958781 0.506958
vt 0.972344 0.506958
vt 0.958781 0.536190
vt 0.972344 0.536190
vt 0.957518 0.268411
vt 0.943955 0.268411
vt 0.929130 0.642930
vt 0.942693 0.642930
vt 0.958781 0.000631
vt 0.972344 0.000631
vt 0.957518 0.239179
vt 0.943955 0.239179
vt 0.957518 0.000631
vt 0.943955 0.000631
vn 1.0000 0.0000 0.0000
vn 0.0000 0.5970 0.8023
vn -1.0000 -0.0000 0.0000
vn -0.0000 -0.5970 -0.8023
vn 0.0000 -0.8023 0.5970
vn -0.0000 0.8023 -0.5970
vn 0.0000 0.5843 0.8115
vn 0.0000 -0.5843 -0.8115
vn 0.0000 -1.0000 0.0000
vn 0.0000 1.0000 0.0000
vn -0.0000 0.5843 -0.8115
vn 0.0000 -0.5843 0.8115
vn 0.0000 0.5970 -0.8023
vn 0.0000 -0.5970 0.8023
vn 0.0000 -0.8023 -0.5970
vn 0.0000 0.8023 0.5970
vn -0.9261 0.0000 0.3772
vn -0.9684 0.0000 0.2494
vn -0.0000 0.0000 1.0000
vn -0.1343 0.0000 -0.9909
vn 0.1349 0.0000 -0.9909
vn 0.9801 -0.0000 0.1986
vn 0.9443 0.0000 0.3290
vn 0.0000 0.0000 -1.0000
vn 0.9738 0.0000 0.2274
vn -0.9697 0.0000 0.2445
vn 0.9942 0.0000 0.1072
vn -0.9933 0.0000 0.1156
vn 1.0000 0.0000 -0.0060
vn 0.9960 0.0000 -0.0895
vn -0.9970 0.0000 -0.0773
vn 0.9810 0.0000 -0.1939
vn -0.9840 0.0000 -0.1781
vn -0.9788 0.0000 -0.2049
vn -0.9422 0.0000 -0.3350
vn 0.1346 0.0000 0.9909
vn -0.1349 0.0000 0.9909
vn 0.9334 0.0000 -0.3590
vn 0.9732 0.0000 -0.2301
vn -0.9720 0.0000 -0.2351
vn -0.5843 0.0000 -0.8115
vn 0.9620 -0.0000 -0.2731
vn 0.5744 -0.0000 -0.8186
vn 0.5806 0.0000 0.8142
vn 0.9683 0.0000 0.2496
vn -0.9633 0.0000 0.2685
vn -0.5756 0.0000 0.8177
vn -0.7071 0.0000 -0.7071
vn 0.7071 0.0000 -0.7071
vn 0.7071 0.0000 0.7071
vn -0.7071 0.0000 0.7071
usemtl Wooden_table
s off
f 113/1/1 114/2/1 116/3/1 115/4/1
f 115/5/2 116/6/2 120/7/2 119/8/2
f 119/9/3 120/10/3 118/11/3 117/12/3
f 117/13/4 118/14/4 114/15/4 113/16/4
f 115/17/5 119/9/5 117/12/5 113/18/5
f 120/19/6 116/3/6 114/2/6 118/20/6
f 121/21/7 122/22/7 124/23/7 123/24/7
f 123/25/3 124/26/3 128/27/3 127/28/3
f 127/29/8 128/30/8 126/31/8 125/32/8
f 125/33/1 126/34/1 122/35/1 121/36/1
f 123/24/9 127/37/9 125/38/9 121/21/9
f 128/39/10 124/23/10 122/22/10 126/40/10
f 129/41/11 130/42/11 132/43/11 131/44/11
f 131/45/1 132/46/1 136/47/1 135/48/1
f 135/49/12 136/50/12 134/51/12 133/52/12
f 133/53/3 134/54/3 130/55/3 129/56/3
f 131/44/9 135/57/9 133/58/9 129/41/9
f 136/59/10 132/43/10 130/42/10 134/60/10
f 137/61/7 138/62/7 140/63/7 139/64/7
f 139/65/3 140/66/3 144/67/3 143/68/3
f 143/69/8 144/70/8 142/71/8 141/72/8
f 141/73/1 142/74/1 138/75/1 137/76/1
f 139/64/9 143/77/9 141/78/9 137/61/9
f 144/79/10 140/63/10 138/62/10 142/80/10
f 145/81/11 146/82/11 148/83/11 147/84/11
f 147/85/1 148/86/1 152/87/1 151/88/1
f 151/89/12 152/90/12 150/91/12 149/92/12
f 149/93/3 150/94/3 146/95/3 145/96/3
f 147/84/9 151/97/9 149/98/9 145/81/9
f 152/99/10 148/83/10 146/82/10 150/100/10
f 153/101/3 154/102/3 156/103/3 155/104/3
f 155/105/13 156/106/13 160/107/13 159/108/13
f 159/109/1 160/110/1 158/111/1 157/112/1
f 157/113/14 158/114/14 154/115/14 153/116/14
f 155/104/15 159/117/15 157/118/15 153/101/15
f 160/110/16 156/119/16 154/120/16 158/111/16
s 1
f 1/121/17 2/122/17 54/123/18 49/124/18
f 47/125/9 73/126/9 75/127/9 76/128/9 74/129/9 65/130/9 67/131/9 68/132/9 66/133/9 45/134/9
f 3/135/19 4/136/19 2/122/19 1/121/19
f 4/137/10 61/138/10 63/139/10 64/140/10 62/141/10 53/142/10 55/143/10 56/144/10 54/145/10 2/146/10
f 50/147/20 53/148/20 62/149/21 57/150/21
f 58/151/22 61/152/22 4/153/23 3/154/23
f 5/155/24 6/156/24 8/157/24 7/158/24
f 7/159/25 8/160/25 12/161/25 11/162/25
f 11/163/19 12/164/19 10/165/19 9/166/19
f 9/167/26 10/168/26 6/169/26 5/170/26
f 7/171/9 11/172/9 9/167/9 5/170/9
f 12/161/10 8/160/10 6/173/10 10/174/10
f 13/175/24 14/176/24 16/177/24 15/178/24
f 15/179/27 16/180/27 20/181/27 19/182/27
f 19/183/19 20/184/19 18/185/19 17/186/19
f 17/187/28 18/188/28 14/189/28 13/190/28
f 15/191/9 19/192/9 17/187/9 13/190/9
f 20/181/10 16/180/10 14/193/10 18/194/10
f 21/195/24 22/196/24 24/197/24 23/198/24
f 23/199/29 24/200/29 28/201/29 27/202/29
f 27/203/19 28/204/19 26/205/19 25/206/19
f 25/207/3 26/208/3 22/209/3 21/210/3
f 23/211/9 27/212/9 25/207/9 21/210/9
f 28/201/10 24/200/10 22/213/10 26/214/10
f 29/215/24 30/216/24 32/217/24 31/218/24
f 31/219/30 32/220/30 36/221/30 35/222/30
f 35/223/19 36/224/19 34/225/19 33/226/19
f 33/227/31 34/228/31 30/229/31 29/230/31
f 31/231/9 35/232/9 33/227/9 29/230/9
f 36/221/10 32/220/10 30/233/10 34/234/10
f 37/235/24 38/236/24 40/237/24 39/238/24
f 39/239/32 40/240/32 44/241/32 43/242/32
f 43/243/19 44/244/19 42/245/19 41/246/19
f 41/247/33 42/248/33 38/249/33 37/250/33
f 39/251/9 43/252/9 41/247/9 37/250/9
f 44/241/10 40/240/10 38/253/10 42/254/10
f 45/255/24 46/256/24 48/257/24 47/258/24
f 66/259/34 69/260/34 46/256/35 45/255/35
f 77/261/10 79/262/10 80/263/10 78/264/10 48/265/10 46/266/10 69/267/10 71/268/10 72/269/10 70/270/10
f 74/271/36 77/272/36 70/273/37 65/274/37
f 47/275/38 48/276/38 78/277/39 73/278/39
f 49/124/18 54/123/18 56/279/40 51/280/40
f 51/280/40 56/279/40 55/281/41 52/282/41
f 52/282/41 55/281/41 53/148/20 50/147/20
f 61/152/22 58/151/22 60/283/42 63/284/42
f 63/284/42 60/283/42 59/285/43 64/286/43
f 64/286/43 59/285/43 57/150/21 62/149/21
f 77/272/36 74/271/36 76/287/44 79/288/44
f 79/288/44 76/287/44 75/289/45 80/290/45
f 80/290/45 75/289/45 73/278/39 78/277/39
f 69/260/34 66/259/34 68/291/46 71/292/46
f 71/292/46 68/291/46 67/293/47 72/294/47
f 72/294/47 67/293/47 65/274/37 70/273/37
f 57/295/9 59/296/9 60/297/9 58/298/9 3/299/9 1/300/9 49/301/9 51/302/9 52/303/9 50/304/9
f 89/305/3 92/306/3 83/307/3 82/308/3
f 85/309/1 88/310/1 95/311/1 94/312/1
f 81/313/24 84/314/24 87/315/24 86/316/24
f 93/317/19 96/318/19 91/319/19 90/320/19
f 82/308/48 83/307/48 84/314/48 81/313/48
f 88/310/49 85/309/49 86/321/49 87/322/49
f 96/318/50 93/317/50 94/312/50 95/311/50
f 92/306/51 89/305/51 90/323/51 91/324/51
f 97/325/1 98/326/1 99/327/1 100/328/1
f 101/329/3 102/330/3 103/331/3 104/332/3
f 105/333/19 106/334/19 107/335/19 108/336/19
f 109/337/24 110/338/24 111/339/24 112/340/24
f 98/326/50 105/333/50 108/336/50 99/327/50
f 104/332/51 107/341/51 106/342/51 101/329/51
f 112/340/48 103/331/48 102/330/48 109/337/48
f 100/328/49 111/343/49 110/344/49 97/325/49
f 81/345/9 86/346/9 106/347/9 105/348/9
f 84/349/10 83/350/10 99/351/10 108/352/10
f 87/353/10 84/349/10 108/352/10 107/354/10
f 94/355/9 93/356/9 109/357/9 102/358/9
f 89/359/9 82/360/9 98/361/9 97/362/9
f 88/363/10 87/364/10 107/365/10 104/366/10
f 83/350/10 92/367/10 100/368/10 99/351/10
f 92/367/10 91/369/10 111/370/10 100/368/10
f 85/371/9 94/355/9 102/358/9 101/372/9
f 86/373/9 85/371/9 101/372/9 106/374/9
f 95/375/10 88/363/10 104/366/10 103/376/10
f 90/377/9 89/359/9 97/362/9 110/378/9
f 93/356/9 90/379/9 110/380/9 109/357/9
f 82/360/9 81/345/9 105/348/9 98/361/9
f 96/381/10 95/375/10 103/376/10 112/382/10
f 91/383/10 96/381/10 112/382/10 111/384/10
